PathFileType	4	(X/Y/Z)	C:\Users\italobelli\Desktop\GitHub\PTbot_officialCBL\Personal_Results\FLX03_noisy1.trc
DataRate	CameraRate	NumFrames	NumMarkers	Units	OrigDataRate	OrigDataStartFrame	OrigNumFrames
106.125000	106.125000	25	9	m	106.125000	638	850
Frame#	Time		gu		centelbow		EpL		centpxt8		centijc7		ij		ts		aa		ai
			X1	Y1	Z1	X2	Y2	Z2	X3	Y3	Z3	X4	Y4	Z4	X5	Y5	Z5	X6	Y6	Z6	X7	Y7	Z7	X8	Y8	Z8	X9	Y9	Z9

638	6.0024	-0.082338	0.0028065	0.15608	0.025421	-0.20006	0.24341	0.041095	-0.17893	0.26201	-0.046816	-0.15316	-0.008669	-0.046816	0.031938	-0.008669	0	0	0	-0.14722	0.017361	0.04741	-0.11435	0.029348	0.16144	-0.14628	-0.094878	0.064419
639	6.0118	-0.082298	0.0024194	0.15621	0.023398	-0.20153	0.24294	0.039281	-0.18072	0.26158	-0.046816	-0.15316	-0.008669	-0.046816	0.031938	-0.008669	0	0	0	-0.14712	0.017549	0.047429	-0.1143	0.0291	0.16159	-0.14638	-0.094768	0.064171
640	6.0212	-0.082255	0.0020304	0.15635	0.021309	-0.203	0.24245	0.037404	-0.18251	0.26114	-0.046816	-0.15316	-0.008669	-0.046816	0.031938	-0.008669	0	0	0	-0.14701	0.017737	0.047457	-0.11423	0.028852	0.16173	-0.14648	-0.094654	0.063927
641	6.0306	-0.082211	0.0016398	0.15647	0.019158	-0.20447	0.24195	0.035466	-0.18429	0.26068	-0.046816	-0.15316	-0.008669	-0.046816	0.031938	-0.008669	0	0	0	-0.14689	0.017926	0.047494	-0.11416	0.028606	0.16187	-0.14658	-0.094534	0.063688
642	6.04	-0.082164	0.0012481	0.1566	0.016949	-0.20593	0.24143	0.033471	-0.18607	0.2602	-0.046816	-0.15316	-0.008669	-0.046816	0.031938	-0.008669	0	0	0	-0.14677	0.018114	0.047538	-0.11407	0.02836	0.16202	-0.14668	-0.094411	0.063453
643	6.0495	-0.082116	0.00085541	0.15671	0.014684	-0.20739	0.24089	0.031422	-0.18784	0.2597	-0.046816	-0.15316	-0.008669	-0.046816	0.031938	-0.008669	0	0	0	-0.14664	0.018303	0.04759	-0.11398	0.028115	0.16216	-0.14677	-0.094283	0.063223
644	6.0589	-0.082065	0.00046216	0.15683	0.012368	-0.20884	0.24034	0.029322	-0.18961	0.25919	-0.046816	-0.15316	-0.008669	-0.046816	0.031938	-0.008669	0	0	0	-0.14651	0.018492	0.04765	-0.11387	0.027872	0.16231	-0.14687	-0.094152	0.062998
645	6.0683	-0.082013	6.8639e-05	0.15694	0.010003	-0.21028	0.23977	0.027174	-0.19136	0.25867	-0.046816	-0.15316	-0.008669	-0.046816	0.031938	-0.008669	0	0	0	-0.14638	0.01868	0.047717	-0.11376	0.02763	0.16246	-0.14697	-0.094017	0.062777
646	6.0777	-0.08196	-0.00032483	0.15704	0.0075921	-0.21171	0.23918	0.024982	-0.19311	0.25813	-0.046816	-0.15316	-0.008669	-0.046816	0.031938	-0.008669	0	0	0	-0.14624	0.018868	0.04779	-0.11364	0.027389	0.16261	-0.14706	-0.093878	0.062561
647	6.0872	-0.081904	-0.00071793	0.15715	0.0051396	-0.21313	0.23859	0.022747	-0.19485	0.25758	-0.046816	-0.15316	-0.008669	-0.046816	0.031938	-0.008669	0	0	0	-0.14609	0.019055	0.047869	-0.11351	0.027151	0.16275	-0.14716	-0.093737	0.062349
648	6.0966	-0.081848	-0.0011103	0.15724	0.0026485	-0.21455	0.23798	0.020473	-0.19658	0.25701	-0.046816	-0.15316	-0.008669	-0.046816	0.031938	-0.008669	0	0	0	-0.14594	0.019242	0.047955	-0.11337	0.026914	0.1629	-0.14725	-0.093593	0.062142
649	6.106	-0.081789	-0.0015018	0.15734	0.00012205	-0.21595	0.23736	0.018164	-0.1983	0.25643	-0.046816	-0.15316	-0.008669	-0.046816	0.031938	-0.008669	0	0	0	-0.14579	0.019428	0.048046	-0.11323	0.026679	0.16305	-0.14735	-0.093446	0.061939
650	6.1154	-0.08173	-0.0018918	0.15743	-0.0024363	-0.21733	0.23672	0.015822	-0.2	0.25584	-0.046816	-0.15316	-0.008669	-0.046816	0.031938	-0.008669	0	0	0	-0.14563	0.019612	0.048142	-0.11308	0.026447	0.1632	-0.14744	-0.093297	0.06174
651	6.1249	-0.081669	-0.0022803	0.15752	-0.0050232	-0.21871	0.23608	0.013451	-0.20169	0.25524	-0.046816	-0.15316	-0.008669	-0.046816	0.031938	-0.008669	0	0	0	-0.14547	0.019796	0.048243	-0.11292	0.026217	0.16335	-0.14753	-0.093146	0.061545
652	6.1343	-0.081607	-0.0026668	0.15761	-0.0076354	-0.22007	0.23542	0.011053	-0.20336	0.25462	-0.046816	-0.15316	-0.008669	-0.046816	0.031938	-0.008669	0	0	0	-0.14531	0.019979	0.048349	-0.11276	0.02599	0.1635	-0.14763	-0.092993	0.061355
653	6.1437	-0.081543	-0.003051	0.15769	-0.01027	-0.22141	0.23475	0.0086314	-0.20502	0.254	-0.046816	-0.15316	-0.008669	-0.046816	0.031938	-0.008669	0	0	0	-0.14514	0.02016	0.048459	-0.1126	0.025766	0.16365	-0.14772	-0.092839	0.06117
654	6.1531	-0.081479	-0.0034326	0.15777	-0.012922	-0.22274	0.23407	0.0061897	-0.20665	0.25337	-0.046816	-0.15316	-0.008669	-0.046816	0.031938	-0.008669	0	0	0	-0.14497	0.020339	0.048572	-0.11243	0.025544	0.16379	-0.14781	-0.092683	0.060988
655	6.1625	-0.081414	-0.0038113	0.15785	-0.01559	-0.22405	0.23339	0.0037307	-0.20827	0.25272	-0.046816	-0.15316	-0.008669	-0.046816	0.031938	-0.008669	0	0	0	-0.1448	0.020517	0.048689	-0.11225	0.025326	0.16394	-0.14789	-0.092526	0.06081
656	6.172	-0.081348	-0.0041868	0.15792	-0.01827	-0.22535	0.23269	0.0012576	-0.20987	0.25207	-0.046816	-0.15316	-0.008669	-0.046816	0.031938	-0.008669	0	0	0	-0.14462	0.020693	0.048809	-0.11207	0.025111	0.16409	-0.14798	-0.092369	0.060637
657	6.1814	-0.081281	-0.0045587	0.158	-0.020958	-0.22662	0.23199	-0.0012268	-0.21145	0.25142	-0.046816	-0.15316	-0.008669	-0.046816	0.031938	-0.008669	0	0	0	-0.14445	0.020867	0.048932	-0.11189	0.024899	0.16423	-0.14806	-0.092211	0.060468
658	6.1908	-0.081213	-0.0049267	0.15807	-0.023652	-0.22788	0.23128	-0.0037191	-0.21301	0.25075	-0.046816	-0.15316	-0.008669	-0.046816	0.031938	-0.008669	0	0	0	-0.14427	0.021039	0.049057	-0.11171	0.024691	0.16437	-0.14815	-0.092052	0.060303
659	6.2002	-0.081145	-0.0052906	0.15814	-0.026347	-0.22911	0.23056	-0.0062165	-0.21455	0.25008	-0.046816	-0.15316	-0.008669	-0.046816	0.031938	-0.008669	0	0	0	-0.14409	0.021209	0.049184	-0.11152	0.024487	0.16451	-0.14823	-0.091894	0.060141
660	6.2097	-0.081076	-0.00565	0.15821	-0.029041	-0.23033	0.22983	-0.0087158	-0.21606	0.2494	-0.046816	-0.15316	-0.008669	-0.046816	0.031938	-0.008669	0	0	0	-0.1439	0.021376	0.049313	-0.11133	0.024287	0.16465	-0.14831	-0.091736	0.059984
661	6.2191	-0.081007	-0.0060045	0.15828	-0.03173	-0.23152	0.2291	-0.011214	-0.21754	0.24872	-0.046816	-0.15316	-0.008669	-0.046816	0.031938	-0.008669	0	0	0	-0.14372	0.021541	0.049443	-0.11115	0.024091	0.16479	-0.14839	-0.091578	0.059831
662	6.2285	-0.080937	-0.0063539	0.15834	-0.034411	-0.23268	0.22837	-0.013708	-0.219	0.24803	-0.046816	-0.15316	-0.008669	-0.046816	0.031938	-0.008669	0	0	0	-0.14353	0.021703	0.049573	-0.11096	0.023899	0.16493	-0.14846	-0.091421	0.059681
